<svg width="306" height="243" viewBox="0 0 306 243" fill="none" xmlns="http://www.w3.org/2000/svg">
<circle opacity="0.9" cx="214.364" cy="110.637" r="84.3643" fill="#F99C30"/>
<path d="M186.111 99.5303C184.852 99.0353 183.884 98.3154 183.209 97.3705C182.534 96.4257 182.197 95.2783 182.197 93.9285C182.197 92.7136 182.501 91.6225 183.108 90.6551C183.715 89.6653 184.615 88.8891 185.808 88.3267C187.023 87.7418 188.485 87.4493 190.195 87.4493C191.904 87.4493 193.355 87.7418 194.548 88.3267C195.763 88.8891 196.674 89.6653 197.281 90.6551C197.911 91.6225 198.226 92.7136 198.226 93.9285C198.226 95.2333 197.877 96.3807 197.18 97.3705C196.483 98.3379 195.526 99.0578 194.312 99.5303C195.706 99.9577 196.809 100.711 197.619 101.791C198.451 102.849 198.867 104.131 198.867 105.638C198.867 107.101 198.507 108.383 197.787 109.485C197.068 110.565 196.044 111.409 194.717 112.016C193.412 112.601 191.904 112.894 190.195 112.894C188.485 112.894 186.978 112.601 185.673 112.016C184.39 111.409 183.389 110.565 182.669 109.485C181.949 108.383 181.589 107.101 181.589 105.638C181.589 104.131 181.994 102.837 182.804 101.757C183.614 100.678 184.717 99.9352 186.111 99.5303ZM195.256 94.2997C195.256 92.9274 194.807 91.87 193.907 91.1276C193.007 90.3852 191.769 90.014 190.195 90.014C188.642 90.014 187.416 90.3852 186.516 91.1276C185.616 91.87 185.167 92.9386 185.167 94.3334C185.167 95.5933 185.628 96.6056 186.55 97.3705C187.495 98.1354 188.71 98.5179 190.195 98.5179C191.702 98.5179 192.917 98.1354 193.839 97.3705C194.784 96.5831 195.256 95.5595 195.256 94.2997ZM190.195 100.88C188.53 100.88 187.169 101.274 186.111 102.061C185.054 102.826 184.525 103.985 184.525 105.537C184.525 106.977 185.032 108.135 186.044 109.013C187.079 109.89 188.462 110.329 190.195 110.329C191.927 110.329 193.299 109.89 194.312 109.013C195.324 108.135 195.83 106.977 195.83 105.537C195.83 104.03 195.313 102.882 194.278 102.095C193.243 101.285 191.882 100.88 190.195 100.88ZM219.03 90.4864H207.185V98.1804C207.703 97.4605 208.467 96.8756 209.48 96.4257C210.492 95.9532 211.583 95.717 212.753 95.717C214.62 95.717 216.139 96.1107 217.309 96.8981C218.479 97.663 219.311 98.6641 219.806 99.9015C220.323 101.116 220.582 102.41 220.582 103.782C220.582 105.402 220.278 106.853 219.671 108.135C219.064 109.418 218.13 110.43 216.87 111.173C215.633 111.915 214.092 112.286 212.247 112.286C209.885 112.286 207.972 111.679 206.51 110.464C205.048 109.249 204.159 107.629 203.844 105.604H206.848C207.14 106.887 207.759 107.888 208.704 108.608C209.649 109.328 210.841 109.688 212.281 109.688C214.058 109.688 215.397 109.159 216.296 108.102C217.196 107.022 217.646 105.604 217.646 103.85C217.646 102.095 217.196 100.745 216.296 99.8002C215.397 98.8329 214.069 98.3492 212.314 98.3492C211.122 98.3492 210.076 98.6416 209.176 99.2266C208.299 99.789 207.658 100.565 207.253 101.555H204.35V87.7868H219.03V90.4864ZM224.515 93.3211C224.515 91.7912 224.977 90.5764 225.899 89.6765C226.821 88.7541 228.002 88.2929 229.442 88.2929C230.882 88.2929 232.063 88.7541 232.986 89.6765C233.908 90.5764 234.369 91.7912 234.369 93.3211C234.369 94.8734 233.908 96.1107 232.986 97.0331C232.063 97.933 230.882 98.3829 229.442 98.3829C228.002 98.3829 226.821 97.933 225.899 97.0331C224.977 96.1107 224.515 94.8734 224.515 93.3211ZM244.223 88.6641L230.556 112.219H227.519L241.186 88.6641H244.223ZM229.442 90.1827C228.677 90.1827 228.07 90.4527 227.62 90.9926C227.193 91.51 226.979 92.2862 226.979 93.3211C226.979 94.3559 227.193 95.1433 227.62 95.6833C228.07 96.2232 228.677 96.4932 229.442 96.4932C230.207 96.4932 230.815 96.2232 231.264 95.6833C231.714 95.1208 231.939 94.3334 231.939 93.3211C231.939 92.2862 231.714 91.51 231.264 90.9926C230.815 90.4527 230.207 90.1827 229.442 90.1827ZM237.44 107.562C237.44 106.009 237.901 104.783 238.824 103.883C239.746 102.961 240.927 102.5 242.367 102.5C243.807 102.5 244.977 102.961 245.876 103.883C246.799 104.783 247.26 106.009 247.26 107.562C247.26 109.092 246.799 110.318 245.876 111.24C244.977 112.162 243.807 112.624 242.367 112.624C240.927 112.624 239.746 112.174 238.824 111.274C237.901 110.351 237.44 109.114 237.44 107.562ZM242.333 104.423C241.568 104.423 240.961 104.693 240.511 105.233C240.061 105.751 239.836 106.527 239.836 107.562C239.836 108.574 240.061 109.35 240.511 109.89C240.961 110.408 241.568 110.666 242.333 110.666C243.098 110.666 243.705 110.408 244.155 109.89C244.605 109.35 244.83 108.574 244.83 107.562C244.83 106.527 244.605 105.751 244.155 105.233C243.705 104.693 243.098 104.423 242.333 104.423Z" fill="white"/>
<path d="M182.96 127.18V128.116H179.125V131.09H182.238V132.026H179.125V136H177.974V127.18H182.96ZM187.902 136.114C187.253 136.114 186.662 135.966 186.131 135.671C185.608 135.376 185.194 134.958 184.89 134.418C184.595 133.87 184.448 133.237 184.448 132.52C184.448 131.811 184.599 131.187 184.903 130.647C185.215 130.099 185.637 129.681 186.169 129.394C186.7 129.099 187.295 128.951 187.953 128.951C188.611 128.951 189.206 129.099 189.737 129.394C190.269 129.681 190.686 130.095 190.99 130.634C191.302 131.174 191.458 131.803 191.458 132.52C191.458 133.237 191.298 133.87 190.977 134.418C190.665 134.958 190.239 135.376 189.699 135.671C189.159 135.966 188.56 136.114 187.902 136.114ZM187.902 135.102C188.316 135.102 188.704 135.005 189.066 134.81C189.429 134.616 189.72 134.325 189.94 133.937C190.167 133.549 190.281 133.077 190.281 132.52C190.281 131.963 190.172 131.491 189.952 131.103C189.733 130.715 189.446 130.428 189.092 130.242C188.737 130.048 188.354 129.951 187.94 129.951C187.518 129.951 187.13 130.048 186.776 130.242C186.43 130.428 186.152 130.715 185.941 131.103C185.73 131.491 185.624 131.963 185.624 132.52C185.624 133.085 185.726 133.562 185.928 133.95C186.139 134.338 186.417 134.629 186.763 134.823C187.109 135.009 187.489 135.102 187.902 135.102ZM196.524 136.114C195.874 136.114 195.284 135.966 194.752 135.671C194.229 135.376 193.816 134.958 193.512 134.418C193.217 133.87 193.069 133.237 193.069 132.52C193.069 131.811 193.221 131.187 193.525 130.647C193.837 130.099 194.259 129.681 194.79 129.394C195.322 129.099 195.917 128.951 196.575 128.951C197.233 128.951 197.827 129.099 198.359 129.394C198.89 129.681 199.308 130.095 199.612 130.634C199.924 131.174 200.08 131.803 200.08 132.52C200.08 133.237 199.92 133.87 199.599 134.418C199.287 134.958 198.861 135.376 198.321 135.671C197.781 135.966 197.182 136.114 196.524 136.114ZM196.524 135.102C196.937 135.102 197.326 135.005 197.688 134.81C198.051 134.616 198.342 134.325 198.561 133.937C198.789 133.549 198.903 133.077 198.903 132.52C198.903 131.963 198.793 131.491 198.574 131.103C198.355 130.715 198.068 130.428 197.714 130.242C197.359 130.048 196.975 129.951 196.562 129.951C196.14 129.951 195.752 130.048 195.398 130.242C195.052 130.428 194.774 130.715 194.563 131.103C194.352 131.491 194.246 131.963 194.246 132.52C194.246 133.085 194.347 133.562 194.55 133.95C194.761 134.338 195.039 134.629 195.385 134.823C195.731 135.009 196.111 135.102 196.524 135.102ZM201.691 132.507C201.691 131.799 201.835 131.179 202.121 130.647C202.408 130.107 202.801 129.69 203.298 129.394C203.804 129.099 204.37 128.951 204.994 128.951C205.534 128.951 206.036 129.078 206.5 129.331C206.964 129.576 207.318 129.9 207.563 130.305V126.636H208.727V136H207.563V134.697C207.335 135.11 206.998 135.452 206.551 135.722C206.103 135.983 205.58 136.114 204.981 136.114C204.365 136.114 203.804 135.962 203.298 135.658C202.801 135.355 202.408 134.929 202.121 134.38C201.835 133.832 201.691 133.208 201.691 132.507ZM207.563 132.52C207.563 131.997 207.457 131.541 207.247 131.153C207.036 130.765 206.749 130.47 206.386 130.267C206.032 130.057 205.639 129.951 205.209 129.951C204.779 129.951 204.387 130.052 204.032 130.255C203.678 130.457 203.395 130.753 203.184 131.141C202.973 131.529 202.868 131.984 202.868 132.507C202.868 133.039 202.973 133.503 203.184 133.899C203.395 134.287 203.678 134.587 204.032 134.798C204.387 135 204.779 135.102 205.209 135.102C205.639 135.102 206.032 135 206.386 134.798C206.749 134.587 207.036 134.287 207.247 133.899C207.457 133.503 207.563 133.043 207.563 132.52ZM220.53 127.18V128.116H218.126V136H216.974V128.116H214.557V127.18H220.53ZM222.045 132.507C222.045 131.799 222.188 131.179 222.475 130.647C222.762 130.107 223.154 129.69 223.652 129.394C224.158 129.099 224.719 128.951 225.335 128.951C225.942 128.951 226.47 129.082 226.917 129.344C227.364 129.605 227.697 129.934 227.917 130.331V129.065H229.081V136H227.917V134.709C227.689 135.114 227.347 135.452 226.892 135.722C226.444 135.983 225.921 136.114 225.322 136.114C224.707 136.114 224.15 135.962 223.652 135.658C223.154 135.355 222.762 134.929 222.475 134.38C222.188 133.832 222.045 133.208 222.045 132.507ZM227.917 132.52C227.917 131.997 227.811 131.541 227.6 131.153C227.389 130.765 227.102 130.47 226.74 130.267C226.385 130.057 225.993 129.951 225.563 129.951C225.133 129.951 224.74 130.052 224.386 130.255C224.032 130.457 223.749 130.753 223.538 131.141C223.327 131.529 223.222 131.984 223.222 132.507C223.222 133.039 223.327 133.503 223.538 133.899C223.749 134.287 224.032 134.587 224.386 134.798C224.74 135 225.133 135.102 225.563 135.102C225.993 135.102 226.385 135 226.74 134.798C227.102 134.587 227.389 134.287 227.6 133.899C227.811 133.503 227.917 133.043 227.917 132.52ZM234.009 136.114C233.478 136.114 233.001 136.025 232.579 135.848C232.157 135.663 231.824 135.409 231.579 135.089C231.335 134.76 231.2 134.384 231.175 133.963H232.364C232.398 134.309 232.558 134.591 232.845 134.81C233.14 135.03 233.524 135.14 233.997 135.14C234.435 135.14 234.781 135.042 235.034 134.848C235.287 134.654 235.414 134.41 235.414 134.114C235.414 133.811 235.279 133.587 235.009 133.444C234.739 133.292 234.321 133.144 233.756 133.001C233.241 132.866 232.82 132.731 232.491 132.596C232.17 132.453 231.892 132.246 231.655 131.976C231.428 131.697 231.314 131.335 231.314 130.888C231.314 130.533 231.419 130.208 231.63 129.913C231.841 129.618 232.14 129.386 232.529 129.217C232.917 129.04 233.36 128.951 233.857 128.951C234.625 128.951 235.245 129.145 235.718 129.534C236.19 129.922 236.443 130.453 236.477 131.128H235.325C235.3 130.765 235.152 130.474 234.882 130.255C234.621 130.035 234.266 129.926 233.819 129.926C233.406 129.926 233.077 130.014 232.832 130.192C232.588 130.369 232.465 130.601 232.465 130.888C232.465 131.115 232.537 131.305 232.68 131.457C232.832 131.6 233.018 131.719 233.237 131.811C233.465 131.896 233.777 131.993 234.174 132.102C234.671 132.237 235.076 132.372 235.389 132.507C235.701 132.634 235.966 132.828 236.186 133.089C236.414 133.351 236.532 133.693 236.54 134.114C236.54 134.494 236.435 134.836 236.224 135.14C236.013 135.443 235.713 135.684 235.325 135.861C234.946 136.03 234.507 136.114 234.009 136.114ZM240.098 130.014V134.102C240.098 134.439 240.169 134.68 240.313 134.823C240.456 134.958 240.705 135.026 241.059 135.026H241.907V136H240.87C240.228 136 239.748 135.852 239.427 135.557C239.106 135.262 238.946 134.777 238.946 134.102V130.014H238.048V129.065H238.946V127.319H240.098V129.065H241.907V130.014H240.098ZM250.157 132.267C250.157 132.486 250.144 132.718 250.119 132.963H244.576C244.619 133.646 244.851 134.182 245.272 134.57C245.703 134.95 246.222 135.14 246.829 135.14C247.327 135.14 247.74 135.026 248.069 134.798C248.407 134.562 248.643 134.249 248.778 133.861H250.018C249.832 134.528 249.461 135.072 248.904 135.494C248.348 135.907 247.656 136.114 246.829 136.114C246.171 136.114 245.58 135.966 245.057 135.671C244.543 135.376 244.138 134.958 243.842 134.418C243.547 133.87 243.4 133.237 243.4 132.52C243.4 131.803 243.543 131.174 243.83 130.634C244.117 130.095 244.517 129.681 245.032 129.394C245.555 129.099 246.154 128.951 246.829 128.951C247.487 128.951 248.069 129.095 248.575 129.382C249.082 129.668 249.47 130.065 249.74 130.571C250.018 131.069 250.157 131.634 250.157 132.267ZM248.968 132.026C248.968 131.588 248.871 131.212 248.677 130.9C248.483 130.58 248.217 130.339 247.879 130.179C247.55 130.01 247.183 129.926 246.778 129.926C246.196 129.926 245.699 130.111 245.285 130.483C244.88 130.854 244.648 131.368 244.589 132.026H248.968Z" fill="white"/>
<path d="M214.363 21C263.868 21 304 61.1319 304 110.637C304 160.142 263.868 200.274 214.363 200.274C180.536 200.274 151.085 181.536 135.824 153.874" stroke="#F99C30" stroke-width="2.10911"/>
<circle opacity="0.8" cx="100.879" cy="55.8791" r="51.8791" fill="#6463D6"/>
<path d="M83.027 48.1974C82.2523 47.893 81.6574 47.4503 81.2424 46.8693C80.8274 46.2883 80.6198 45.5827 80.6198 44.7526C80.6198 44.0056 80.8066 43.3346 81.1801 42.7397C81.5537 42.131 82.1071 41.6537 82.8403 41.3079C83.5873 40.9482 84.4866 40.7683 85.538 40.7683C86.5894 40.7683 87.4817 40.9482 88.215 41.3079C88.962 41.6537 89.5223 42.131 89.8958 42.7397C90.2832 43.3346 90.4769 44.0056 90.4769 44.7526C90.4769 45.555 90.2625 46.2606 89.8336 46.8693C89.4047 47.4642 88.8168 47.9069 88.0697 48.1974C88.9274 48.4603 89.6053 48.9237 90.1034 49.5878C90.6152 50.238 90.8712 51.0266 90.8712 51.9535C90.8712 52.8527 90.6498 53.6413 90.2071 54.3191C89.7644 54.9832 89.1349 55.502 88.3187 55.8755C87.5163 56.2352 86.5894 56.4151 85.538 56.4151C84.4866 56.4151 83.5597 56.2352 82.7573 55.8755C81.9687 55.502 81.3531 54.9832 80.9104 54.3191C80.4677 53.6413 80.2463 52.8527 80.2463 51.9535C80.2463 51.0266 80.4953 50.2311 80.9934 49.567C81.4914 48.903 82.1693 48.4464 83.027 48.1974ZM88.6507 44.9809C88.6507 44.137 88.3741 43.4868 87.8207 43.0302C87.2673 42.5737 86.5064 42.3454 85.538 42.3454C84.5834 42.3454 83.8294 42.5737 83.2761 43.0302C82.7227 43.4868 82.446 44.1439 82.446 45.0017C82.446 45.7764 82.7296 46.3989 83.2968 46.8693C83.8779 47.3397 84.6249 47.5749 85.538 47.5749C86.4649 47.5749 87.212 47.3397 87.7792 46.8693C88.3602 46.3851 88.6507 45.7556 88.6507 44.9809ZM85.538 49.0275C84.5142 49.0275 83.6773 49.2696 83.027 49.7538C82.3768 50.2242 82.0517 50.9366 82.0517 51.8912C82.0517 52.7766 82.363 53.4891 82.9855 54.0286C83.6219 54.5682 84.4727 54.8379 85.538 54.8379C86.6032 54.8379 87.4471 54.5682 88.0697 54.0286C88.6922 53.4891 89.0035 52.7766 89.0035 51.8912C89.0035 50.9643 88.6853 50.2587 88.0489 49.7745C87.4126 49.2765 86.5756 49.0275 85.538 49.0275ZM103.27 42.636H95.9861V47.3673C96.3043 46.9246 96.7747 46.5649 97.3972 46.2883C98.0198 45.9977 98.6908 45.8525 99.4101 45.8525C100.558 45.8525 101.492 46.0946 102.212 46.5788C102.931 47.0491 103.443 47.6648 103.747 48.4257C104.065 49.1727 104.225 49.9682 104.225 50.8121C104.225 51.8082 104.038 52.7005 103.664 53.4891C103.291 54.2776 102.717 54.9002 101.942 55.3567C101.181 55.8133 100.233 56.0415 99.0989 56.0415C97.6463 56.0415 96.4703 55.668 95.5711 54.9209C94.6719 54.1739 94.1254 53.1778 93.9317 51.9327H95.7786C95.9585 52.7213 96.3389 53.3369 96.92 53.7796C97.501 54.2223 98.2342 54.4437 99.1196 54.4437C100.213 54.4437 101.036 54.1185 101.589 53.4683C102.142 52.8043 102.419 51.9327 102.419 50.8536C102.419 49.7745 102.142 48.9445 101.589 48.3634C101.036 47.7685 100.219 47.4711 99.1404 47.4711C98.4072 47.4711 97.7639 47.6509 97.2105 48.0106C96.6709 48.3565 96.2766 48.8338 96.0276 49.4425H94.243V40.9758H103.27V42.636ZM106.643 44.3791C106.643 43.4384 106.927 42.6913 107.494 42.1379C108.061 41.5707 108.788 41.2871 109.673 41.2871C110.558 41.2871 111.285 41.5707 111.852 42.1379C112.419 42.6913 112.703 43.4384 112.703 44.3791C112.703 45.3337 112.419 46.0946 111.852 46.6618C111.285 47.2152 110.558 47.4919 109.673 47.4919C108.788 47.4919 108.061 47.2152 107.494 46.6618C106.927 46.0946 106.643 45.3337 106.643 44.3791ZM118.762 41.5154L110.358 56H108.49L116.895 41.5154H118.762ZM109.673 42.4492C109.203 42.4492 108.829 42.6152 108.552 42.9472C108.29 43.2654 108.158 43.7427 108.158 44.3791C108.158 45.0155 108.29 45.4997 108.552 45.8317C108.829 46.1637 109.203 46.3298 109.673 46.3298C110.143 46.3298 110.517 46.1637 110.794 45.8317C111.07 45.4859 111.209 45.0017 111.209 44.3791C111.209 43.7427 111.07 43.2654 110.794 42.9472C110.517 42.6152 110.143 42.4492 109.673 42.4492ZM114.591 53.1363C114.591 52.1817 114.875 51.4277 115.442 50.8744C116.009 50.3072 116.735 50.0236 117.621 50.0236C118.506 50.0236 119.226 50.3072 119.779 50.8744C120.346 51.4277 120.63 52.1817 120.63 53.1363C120.63 54.077 120.346 54.831 119.779 55.3982C119.226 55.9654 118.506 56.2491 117.621 56.2491C116.735 56.2491 116.009 55.9724 115.442 55.419C114.875 54.8518 114.591 54.0909 114.591 53.1363ZM117.6 51.2064C117.13 51.2064 116.756 51.3724 116.48 51.7044C116.203 52.0226 116.064 52.4999 116.064 53.1363C116.064 53.7589 116.203 54.2361 116.48 54.5682C116.756 54.8864 117.13 55.0455 117.6 55.0455C118.07 55.0455 118.444 54.8864 118.721 54.5682C118.997 54.2361 119.136 53.7589 119.136 53.1363C119.136 52.4999 118.997 52.0226 118.721 51.7044C118.444 51.3724 118.07 51.2064 117.6 51.2064Z" fill="white"/>
<path d="M82.3689 66.5756V74.9396H81.2769V71.1476H77.0169V74.9396H75.9249V66.5756H77.0169V70.2476H81.2769V66.5756H82.3689ZM90.2218 68.3636L86.2618 78.0356H85.1338L86.4298 74.8676L83.7778 68.3636H84.9898L87.0538 73.6916L89.0938 68.3636H90.2218ZM94.3557 68.2556C94.9237 68.2556 95.4197 68.3796 95.8437 68.6276C96.2757 68.8756 96.5957 69.1876 96.8037 69.5636V68.3636H97.9077V75.0836C97.9077 75.6836 97.7797 76.2156 97.5237 76.6796C97.2677 77.1516 96.8997 77.5196 96.4197 77.7836C95.9477 78.0476 95.3957 78.1796 94.7637 78.1796C93.8997 78.1796 93.1797 77.9756 92.6037 77.5676C92.0277 77.1596 91.6877 76.6036 91.5837 75.8996H92.6637C92.7837 76.2996 93.0317 76.6196 93.4077 76.8596C93.7837 77.1076 94.2357 77.2316 94.7637 77.2316C95.3637 77.2316 95.8517 77.0436 96.2277 76.6676C96.6117 76.2916 96.8037 75.7636 96.8037 75.0836V73.7036C96.5877 74.0876 96.2677 74.4076 95.8437 74.6636C95.4197 74.9196 94.9237 75.0476 94.3557 75.0476C93.7717 75.0476 93.2397 74.9036 92.7597 74.6156C92.2877 74.3276 91.9157 73.9236 91.6437 73.4036C91.3717 72.8836 91.2357 72.2916 91.2357 71.6276C91.2357 70.9556 91.3717 70.3676 91.6437 69.8636C91.9157 69.3516 92.2877 68.9556 92.7597 68.6756C93.2397 68.3956 93.7717 68.2556 94.3557 68.2556ZM96.8037 71.6396C96.8037 71.1436 96.7037 70.7116 96.5037 70.3436C96.3037 69.9756 96.0317 69.6956 95.6877 69.5036C95.3517 69.3036 94.9797 69.2036 94.5717 69.2036C94.1637 69.2036 93.7917 69.2996 93.4557 69.4916C93.1197 69.6836 92.8517 69.9636 92.6517 70.3316C92.4517 70.6996 92.3517 71.1316 92.3517 71.6276C92.3517 72.1316 92.4517 72.5716 92.6517 72.9476C92.8517 73.3156 93.1197 73.5996 93.4557 73.7996C93.7917 73.9916 94.1637 74.0876 94.5717 74.0876C94.9797 74.0876 95.3517 73.9916 95.6877 73.7996C96.0317 73.5996 96.3037 73.3156 96.5037 72.9476C96.7037 72.5716 96.8037 72.1356 96.8037 71.6396ZM100.641 67.2956C100.433 67.2956 100.257 67.2236 100.113 67.0796C99.9694 66.9356 99.8974 66.7596 99.8974 66.5516C99.8974 66.3436 99.9694 66.1676 100.113 66.0236C100.257 65.8796 100.433 65.8076 100.641 65.8076C100.841 65.8076 101.009 65.8796 101.145 66.0236C101.289 66.1676 101.361 66.3436 101.361 66.5516C101.361 66.7596 101.289 66.9356 101.145 67.0796C101.009 67.2236 100.841 67.2956 100.641 67.2956ZM101.169 68.3636V74.9396H100.077V68.3636H101.169ZM109.355 71.3996C109.355 71.6076 109.343 71.8276 109.319 72.0596H104.063C104.103 72.7076 104.323 73.2156 104.723 73.5836C105.131 73.9436 105.623 74.1236 106.199 74.1236C106.671 74.1236 107.063 74.0156 107.375 73.7996C107.695 73.5756 107.919 73.2796 108.047 72.9116H109.223C109.047 73.5436 108.695 74.0596 108.167 74.4596C107.639 74.8516 106.983 75.0476 106.199 75.0476C105.575 75.0476 105.015 74.9076 104.519 74.6276C104.031 74.3476 103.647 73.9516 103.367 73.4396C103.087 72.9196 102.947 72.3196 102.947 71.6396C102.947 70.9596 103.083 70.3636 103.355 69.8516C103.627 69.3396 104.007 68.9476 104.495 68.6756C104.991 68.3956 105.559 68.2556 106.199 68.2556C106.823 68.2556 107.375 68.3916 107.855 68.6636C108.335 68.9356 108.703 69.3116 108.959 69.7916C109.223 70.2636 109.355 70.7996 109.355 71.3996ZM108.227 71.1716C108.227 70.7556 108.135 70.3996 107.951 70.1036C107.767 69.7996 107.515 69.5716 107.195 69.4196C106.883 69.2596 106.535 69.1796 106.151 69.1796C105.599 69.1796 105.127 69.3556 104.735 69.7076C104.351 70.0596 104.131 70.5476 104.075 71.1716H108.227ZM114.324 68.2436C115.124 68.2436 115.772 68.4876 116.268 68.9756C116.764 69.4556 117.012 70.1516 117.012 71.0636V74.9396H115.932V71.2196C115.932 70.5636 115.768 70.0636 115.44 69.7196C115.112 69.3676 114.664 69.1916 114.096 69.1916C113.52 69.1916 113.06 69.3716 112.716 69.7316C112.38 70.0916 112.212 70.6156 112.212 71.3036V74.9396H111.12V68.3636H112.212V69.2996C112.428 68.9636 112.72 68.7036 113.088 68.5196C113.464 68.3356 113.876 68.2436 114.324 68.2436ZM125.12 71.3996C125.12 71.6076 125.108 71.8276 125.084 72.0596H119.828C119.868 72.7076 120.088 73.2156 120.488 73.5836C120.896 73.9436 121.388 74.1236 121.964 74.1236C122.436 74.1236 122.828 74.0156 123.14 73.7996C123.46 73.5756 123.684 73.2796 123.812 72.9116H124.988C124.812 73.5436 124.46 74.0596 123.932 74.4596C123.404 74.8516 122.748 75.0476 121.964 75.0476C121.34 75.0476 120.78 74.9076 120.284 74.6276C119.796 74.3476 119.412 73.9516 119.132 73.4396C118.852 72.9196 118.712 72.3196 118.712 71.6396C118.712 70.9596 118.848 70.3636 119.12 69.8516C119.392 69.3396 119.772 68.9476 120.26 68.6756C120.756 68.3956 121.324 68.2556 121.964 68.2556C122.588 68.2556 123.14 68.3916 123.62 68.6636C124.1 68.9356 124.468 69.3116 124.724 69.7916C124.988 70.2636 125.12 70.7996 125.12 71.3996ZM123.992 71.1716C123.992 70.7556 123.9 70.3996 123.716 70.1036C123.532 69.7996 123.28 69.5716 122.96 69.4196C122.648 69.2596 122.3 69.1796 121.916 69.1796C121.364 69.1796 120.892 69.3556 120.5 69.7076C120.116 70.0596 119.896 70.5476 119.84 71.1716H123.992Z" fill="white"/>
<path d="M100.878 0.999985C131.321 0.999985 156 25.6788 156 56.1216C156 86.5644 131.321 111.243 100.878 111.243C80.0767 111.243 61.9662 99.7204 52.5815 82.7096" stroke="#6463D6" stroke-width="1.29698"/>
<circle opacity="0.9" cx="61.1765" cy="177.176" r="61.1765" fill="#2FBFDE"/>
<path d="M41.2956 170.344C41.4556 171.256 41.8236 171.96 42.3996 172.456C42.9916 172.952 43.7836 173.2 44.7756 173.2C46.1036 173.2 47.0796 172.68 47.7036 171.64C48.3436 170.6 48.6476 168.848 48.6156 166.384C48.2796 167.104 47.7196 167.672 46.9356 168.088C46.1516 168.488 45.2796 168.688 44.3196 168.688C43.2476 168.688 42.2876 168.472 41.4396 168.04C40.6076 167.592 39.9516 166.944 39.4716 166.096C38.9916 165.248 38.7516 164.224 38.7516 163.024C38.7516 161.312 39.2476 159.936 40.2396 158.896C41.2316 157.84 42.6396 157.312 44.4636 157.312C46.7036 157.312 48.2716 158.04 49.1676 159.496C50.0796 160.952 50.5356 163.12 50.5356 166C50.5356 168.016 50.3516 169.68 49.9836 170.992C49.6316 172.304 49.0236 173.304 48.1596 173.992C47.3116 174.68 46.1436 175.024 44.6556 175.024C43.0236 175.024 41.7516 174.584 40.8396 173.704C39.9276 172.824 39.4076 171.704 39.2796 170.344H41.2956ZM44.6796 166.84C45.7516 166.84 46.6316 166.512 47.3196 165.856C48.0076 165.184 48.3516 164.28 48.3516 163.144C48.3516 161.944 48.0156 160.976 47.3436 160.24C46.6716 159.504 45.7276 159.136 44.5116 159.136C43.3916 159.136 42.4956 159.488 41.8236 160.192C41.1676 160.896 40.8396 161.824 40.8396 162.976C40.8396 164.144 41.1676 165.08 41.8236 165.784C42.4796 166.488 43.4316 166.84 44.6796 166.84ZM53.7231 173.248C55.7551 171.616 57.3471 170.28 58.4991 169.24C59.6511 168.184 60.6191 167.088 61.4031 165.952C62.2031 164.8 62.6031 163.672 62.6031 162.568C62.6031 161.528 62.3471 160.712 61.8351 160.12C61.3391 159.512 60.5311 159.208 59.4111 159.208C58.3231 159.208 57.4751 159.552 56.8671 160.24C56.2751 160.912 55.9551 161.816 55.9071 162.952H53.7951C53.8591 161.16 54.4031 159.776 55.4271 158.8C56.4511 157.824 57.7711 157.336 59.3871 157.336C61.0351 157.336 62.3391 157.792 63.2991 158.704C64.2751 159.616 64.7631 160.872 64.7631 162.472C64.7631 163.8 64.3631 165.096 63.5631 166.36C62.7791 167.608 61.8831 168.712 60.8751 169.672C59.8671 170.616 58.5791 171.72 57.0111 172.984H65.2671V174.808H53.7231V173.248ZM67.6942 161.56C67.6942 160.472 68.0222 159.608 68.6782 158.968C69.3342 158.312 70.1742 157.984 71.1982 157.984C72.2222 157.984 73.0622 158.312 73.7182 158.968C74.3742 159.608 74.7022 160.472 74.7022 161.56C74.7022 162.664 74.3742 163.544 73.7182 164.2C73.0622 164.84 72.2222 165.16 71.1982 165.16C70.1742 165.16 69.3342 164.84 68.6782 164.2C68.0222 163.544 67.6942 162.664 67.6942 161.56ZM81.7102 158.248L71.9902 175H69.8302L79.5502 158.248H81.7102ZM71.1982 159.328C70.6542 159.328 70.2222 159.52 69.9022 159.904C69.5982 160.272 69.4462 160.824 69.4462 161.56C69.4462 162.296 69.5982 162.856 69.9022 163.24C70.2222 163.624 70.6542 163.816 71.1982 163.816C71.7422 163.816 72.1742 163.624 72.4942 163.24C72.8142 162.84 72.9742 162.28 72.9742 161.56C72.9742 160.824 72.8142 160.272 72.4942 159.904C72.1742 159.52 71.7422 159.328 71.1982 159.328ZM76.8862 171.688C76.8862 170.584 77.2142 169.712 77.8702 169.072C78.5262 168.416 79.3662 168.088 80.3902 168.088C81.4142 168.088 82.2462 168.416 82.8862 169.072C83.5422 169.712 83.8702 170.584 83.8702 171.688C83.8702 172.776 83.5422 173.648 82.8862 174.304C82.2462 174.96 81.4142 175.288 80.3902 175.288C79.3662 175.288 78.5262 174.968 77.8702 174.328C77.2142 173.672 76.8862 172.792 76.8862 171.688ZM80.3662 169.456C79.8222 169.456 79.3902 169.648 79.0702 170.032C78.7502 170.4 78.5902 170.952 78.5902 171.688C78.5902 172.408 78.7502 172.96 79.0702 173.344C79.3902 173.712 79.8222 173.896 80.3662 173.896C80.9102 173.896 81.3422 173.712 81.6622 173.344C81.9822 172.96 82.1422 172.408 82.1422 171.688C82.1422 170.952 81.9822 170.4 81.6622 170.032C81.3422 169.648 80.9102 169.456 80.3662 169.456Z" fill="white"/>
<path d="M34.5156 191.084C34.5156 191.78 34.2756 192.36 33.7956 192.824C33.3236 193.28 32.5996 193.508 31.6236 193.508H30.0156V197H28.9236V188.636H31.6236C32.5676 188.636 33.2836 188.864 33.7716 189.32C34.2676 189.776 34.5156 190.364 34.5156 191.084ZM31.6236 192.608C32.2316 192.608 32.6796 192.476 32.9676 192.212C33.2556 191.948 33.3996 191.572 33.3996 191.084C33.3996 190.052 32.8076 189.536 31.6236 189.536H30.0156V192.608H31.6236ZM35.8472 193.688C35.8472 193.016 35.9832 192.428 36.2552 191.924C36.5272 191.412 36.8992 191.016 37.3712 190.736C37.8512 190.456 38.3832 190.316 38.9672 190.316C39.5432 190.316 40.0432 190.44 40.4672 190.688C40.8912 190.936 41.2072 191.248 41.4152 191.624V190.424H42.5192V197H41.4152V195.776C41.1992 196.16 40.8752 196.48 40.4432 196.736C40.0192 196.984 39.5232 197.108 38.9552 197.108C38.3712 197.108 37.8432 196.964 37.3712 196.676C36.8992 196.388 36.5272 195.984 36.2552 195.464C35.9832 194.944 35.8472 194.352 35.8472 193.688ZM41.4152 193.7C41.4152 193.204 41.3152 192.772 41.1152 192.404C40.9152 192.036 40.6432 191.756 40.2992 191.564C39.9632 191.364 39.5912 191.264 39.1832 191.264C38.7752 191.264 38.4032 191.36 38.0672 191.552C37.7312 191.744 37.4632 192.024 37.2632 192.392C37.0632 192.76 36.9632 193.192 36.9632 193.688C36.9632 194.192 37.0632 194.632 37.2632 195.008C37.4632 195.376 37.7312 195.66 38.0672 195.86C38.4032 196.052 38.7752 196.148 39.1832 196.148C39.5912 196.148 39.9632 196.052 40.2992 195.86C40.6432 195.66 40.9152 195.376 41.1152 195.008C41.3152 194.632 41.4152 194.196 41.4152 193.7ZM44.3389 193.7C44.3389 193.02 44.4749 192.428 44.7469 191.924C45.0189 191.412 45.3949 191.016 45.8749 190.736C46.3629 190.456 46.9189 190.316 47.5429 190.316C48.3509 190.316 49.0149 190.512 49.5349 190.904C50.0629 191.296 50.4109 191.84 50.5789 192.536H49.4029C49.2909 192.136 49.0709 191.82 48.7429 191.588C48.4229 191.356 48.0229 191.24 47.5429 191.24C46.9189 191.24 46.4149 191.456 46.0309 191.888C45.6469 192.312 45.4549 192.916 45.4549 193.7C45.4549 194.492 45.6469 195.104 46.0309 195.536C46.4149 195.968 46.9189 196.184 47.5429 196.184C48.0229 196.184 48.4229 196.072 48.7429 195.848C49.0629 195.624 49.2829 195.304 49.4029 194.888H50.5789C50.4029 195.56 50.0509 196.1 49.5229 196.508C48.9949 196.908 48.3349 197.108 47.5429 197.108C46.9189 197.108 46.3629 196.968 45.8749 196.688C45.3949 196.408 45.0189 196.012 44.7469 195.5C44.4749 194.988 44.3389 194.388 44.3389 193.7ZM56.0903 197L53.5103 194.096V197H52.4183V188.12H53.5103V193.34L56.0423 190.424H57.5663L54.4703 193.7L57.5783 197H56.0903ZM58.5685 193.688C58.5685 193.016 58.7045 192.428 58.9765 191.924C59.2485 191.412 59.6205 191.016 60.0925 190.736C60.5725 190.456 61.1045 190.316 61.6885 190.316C62.2645 190.316 62.7645 190.44 63.1885 190.688C63.6125 190.936 63.9285 191.248 64.1365 191.624V190.424H65.2405V197H64.1365V195.776C63.9205 196.16 63.5965 196.48 63.1645 196.736C62.7405 196.984 62.2445 197.108 61.6765 197.108C61.0925 197.108 60.5645 196.964 60.0925 196.676C59.6205 196.388 59.2485 195.984 58.9765 195.464C58.7045 194.944 58.5685 194.352 58.5685 193.688ZM64.1365 193.7C64.1365 193.204 64.0365 192.772 63.8365 192.404C63.6365 192.036 63.3645 191.756 63.0205 191.564C62.6845 191.364 62.3125 191.264 61.9045 191.264C61.4965 191.264 61.1245 191.36 60.7885 191.552C60.4525 191.744 60.1845 192.024 59.9845 192.392C59.7845 192.76 59.6845 193.192 59.6845 193.688C59.6845 194.192 59.7845 194.632 59.9845 195.008C60.1845 195.376 60.4525 195.66 60.7885 195.86C61.1245 196.052 61.4965 196.148 61.9045 196.148C62.3125 196.148 62.6845 196.052 63.0205 195.86C63.3645 195.66 63.6365 195.376 63.8365 195.008C64.0365 194.632 64.1365 194.196 64.1365 193.7ZM70.1802 190.316C70.7482 190.316 71.2442 190.44 71.6682 190.688C72.1002 190.936 72.4202 191.248 72.6282 191.624V190.424H73.7322V197.144C73.7322 197.744 73.6042 198.276 73.3482 198.74C73.0922 199.212 72.7242 199.58 72.2442 199.844C71.7722 200.108 71.2202 200.24 70.5882 200.24C69.7242 200.24 69.0042 200.036 68.4282 199.628C67.8522 199.22 67.5122 198.664 67.4082 197.96H68.4882C68.6082 198.36 68.8562 198.68 69.2322 198.92C69.6082 199.168 70.0602 199.292 70.5882 199.292C71.1882 199.292 71.6762 199.104 72.0522 198.728C72.4362 198.352 72.6282 197.824 72.6282 197.144V195.764C72.4122 196.148 72.0922 196.468 71.6682 196.724C71.2442 196.98 70.7482 197.108 70.1802 197.108C69.5962 197.108 69.0642 196.964 68.5842 196.676C68.1122 196.388 67.7402 195.984 67.4682 195.464C67.1962 194.944 67.0602 194.352 67.0602 193.688C67.0602 193.016 67.1962 192.428 67.4682 191.924C67.7402 191.412 68.1122 191.016 68.5842 190.736C69.0642 190.456 69.5962 190.316 70.1802 190.316ZM72.6282 193.7C72.6282 193.204 72.5282 192.772 72.3282 192.404C72.1282 192.036 71.8562 191.756 71.5122 191.564C71.1762 191.364 70.8042 191.264 70.3962 191.264C69.9882 191.264 69.6162 191.36 69.2802 191.552C68.9442 191.744 68.6762 192.024 68.4762 192.392C68.2762 192.76 68.1762 193.192 68.1762 193.688C68.1762 194.192 68.2762 194.632 68.4762 195.008C68.6762 195.376 68.9442 195.66 69.2802 195.86C69.6162 196.052 69.9882 196.148 70.3962 196.148C70.8042 196.148 71.1762 196.052 71.5122 195.86C71.8562 195.66 72.1282 195.376 72.3282 195.008C72.5282 194.632 72.6282 194.196 72.6282 193.7ZM76.5239 189.356C76.3159 189.356 76.1399 189.284 75.9959 189.14C75.8519 188.996 75.7799 188.82 75.7799 188.612C75.7799 188.404 75.8519 188.228 75.9959 188.084C76.1399 187.94 76.3159 187.868 76.5239 187.868C76.7239 187.868 76.8919 187.94 77.0279 188.084C77.1719 188.228 77.2439 188.404 77.2439 188.612C77.2439 188.82 77.1719 188.996 77.0279 189.14C76.8919 189.284 76.7239 189.356 76.5239 189.356ZM77.0519 190.424V197H75.9599V190.424H77.0519ZM82.4994 190.304C83.2994 190.304 83.9474 190.548 84.4434 191.036C84.9394 191.516 85.1874 192.212 85.1874 193.124V197H84.1074V193.28C84.1074 192.624 83.9434 192.124 83.6154 191.78C83.2874 191.428 82.8394 191.252 82.2714 191.252C81.6954 191.252 81.2354 191.432 80.8914 191.792C80.5554 192.152 80.3874 192.676 80.3874 193.364V197H79.2954V190.424H80.3874V191.36C80.6034 191.024 80.8954 190.764 81.2634 190.58C81.6394 190.396 82.0514 190.304 82.4994 190.304ZM90.0655 190.316C90.6335 190.316 91.1295 190.44 91.5535 190.688C91.9855 190.936 92.3055 191.248 92.5135 191.624V190.424H93.6175V197.144C93.6175 197.744 93.4895 198.276 93.2335 198.74C92.9775 199.212 92.6095 199.58 92.1295 199.844C91.6575 200.108 91.1055 200.24 90.4735 200.24C89.6095 200.24 88.8895 200.036 88.3135 199.628C87.7375 199.22 87.3975 198.664 87.2935 197.96H88.3735C88.4935 198.36 88.7415 198.68 89.1175 198.92C89.4935 199.168 89.9455 199.292 90.4735 199.292C91.0735 199.292 91.5615 199.104 91.9375 198.728C92.3215 198.352 92.5135 197.824 92.5135 197.144V195.764C92.2975 196.148 91.9775 196.468 91.5535 196.724C91.1295 196.98 90.6335 197.108 90.0655 197.108C89.4815 197.108 88.9495 196.964 88.4695 196.676C87.9975 196.388 87.6255 195.984 87.3535 195.464C87.0815 194.944 86.9455 194.352 86.9455 193.688C86.9455 193.016 87.0815 192.428 87.3535 191.924C87.6255 191.412 87.9975 191.016 88.4695 190.736C88.9495 190.456 89.4815 190.316 90.0655 190.316ZM92.5135 193.7C92.5135 193.204 92.4135 192.772 92.2135 192.404C92.0135 192.036 91.7415 191.756 91.3975 191.564C91.0615 191.364 90.6895 191.264 90.2815 191.264C89.8735 191.264 89.5015 191.36 89.1655 191.552C88.8295 191.744 88.5615 192.024 88.3615 192.392C88.1615 192.76 88.0615 193.192 88.0615 193.688C88.0615 194.192 88.1615 194.632 88.3615 195.008C88.5615 195.376 88.8295 195.66 89.1655 195.86C89.5015 196.052 89.8735 196.148 90.2815 196.148C90.6895 196.148 91.0615 196.052 91.3975 195.86C91.7415 195.66 92.0135 195.376 92.2135 195.008C92.4135 194.632 92.5135 194.196 92.5135 193.7Z" fill="white"/>
<path d="M61.1731 112C97.0716 112 126.173 141.101 126.173 177C126.173 212.899 97.0716 242 61.1731 242C36.6435 242 15.2874 228.412 4.22089 208.353" stroke="#2FBFDE" stroke-width="1.52941"/>
</svg>
