<?xml version="1.0" standalone="no"?>
<!DOCTYPE svg PUBLIC "-//W3C//DTD SVG 20010904//EN"
 "http://www.w3.org/TR/2001/REC-SVG-20010904/DTD/svg10.dtd">
<svg version="1.0" xmlns="http://www.w3.org/2000/svg"
 width="160.000000pt" height="160.000000pt" viewBox="0 0 160.000000 160.000000"
 preserveAspectRatio="xMidYMid meet">

<g transform="translate(0.000000,160.000000) scale(0.100000,-0.100000)"
fill="#000000" stroke="none">
<path d="M1310 1391 c0 -5 -6 -11 -12 -14 -7 -2 -4 -3 6 -1 11 2 26 -2 33 -8
8 -6 16 -9 19 -6 2 3 -7 13 -21 22 -14 9 -25 12 -25 7z"/>
<path d="M1364 1318 c9 -15 13 -33 10 -41 -3 -8 4 -38 15 -68 24 -61 28 -161
9 -185 -55 -65 -135 -97 -328 -128 -143 -24 -481 -31 -575 -12 -69 13 -176 17
-189 7 -11 -9 -25 -9 -60 0 -25 6 -46 15 -46 20 0 5 -7 5 -17 2 -10 -4 -14 -2
-9 5 3 6 -2 13 -13 17 -10 3 -31 17 -45 30 -14 13 -26 20 -26 15 0 -4 14 -21
30 -37 25 -23 30 -36 30 -74 0 -46 1 -47 48 -67 134 -57 286 -77 602 -77 314
0 461 19 608 77 50 20 58 30 46 61 -5 13 -10 14 -39 1 -51 -21 -77 -17 -29 5
78 35 144 99 144 138 0 71 -76 266 -101 260 -5 -1 -25 16 -45 38 -24 27 -31
31 -20 13z m-730 -510 c67 -8 84 -13 68 -19 -12 -5 -22 -13 -22 -20 0 -6 -7
-9 -15 -5 -8 3 -15 0 -15 -6 0 -16 -217 -4 -261 15 -24 10 -35 21 -36 37 -2
23 -2 23 95 16 53 -3 137 -12 186 -18z m486 2 c0 -5 -7 -10 -16 -10 -9 0 -12
-5 -8 -12 4 -7 3 -8 -5 -4 -6 4 -17 3 -24 -2 -14 -11 -10 -10 -135 -18 -64 -5
-97 -3 -105 5 -8 8 -5 11 13 12 22 1 22 2 -5 8 -31 8 33 15 258 29 15 1 27 -2
27 -8z"/>
<path d="M1064 1218 c-4 -7 -15 -24 -23 -38 -10 -15 -11 -21 -3 -16 13 7 46
66 38 66 -3 0 -8 -6 -12 -12z"/>
<path d="M116 714 c-21 -55 12 -188 58 -232 39 -38 134 -74 202 -78 28 -1 78
-11 110 -20 53 -16 121 -21 329 -24 143 -1 305 10 344 24 24 9 61 16 82 16 33
0 75 16 189 70 43 20 84 164 66 234 l-6 25 -33 -18 c-17 -11 -84 -38 -147 -61
-243 -88 -328 -123 -414 -173 l-89 -50 -31 18 c-126 76 -207 111 -456 197 -63
22 -134 50 -156 64 -36 20 -43 22 -48 8z"/>
<path d="M1449 388 c-6 -13 -30 -41 -53 -64 -22 -22 -52 -59 -65 -82 -30 -50
-71 -71 -198 -101 -194 -45 -426 -51 -627 -16 -148 26 -326 122 -326 176 0 10
-7 25 -16 33 -8 9 -12 20 -9 26 10 16 23 12 21 -6 0 -9 5 -19 12 -21 8 -3 10
1 6 11 -5 13 -2 15 12 9 17 -6 17 -5 5 10 -15 18 -48 22 -70 8 -16 -10 -10
-86 11 -129 18 -36 87 -86 151 -110 272 -102 836 -89 1057 23 88 45 120 97
120 196 0 61 -11 75 -31 37z"/>
<path d="M351 341 c-9 -6 -2 -10 22 -13 29 -3 34 -1 25 9 -12 15 -27 16 -47 4z"/>
<path d="M646 312 c-3 -5 17 -9 45 -10 29 0 47 3 44 9 -8 11 -82 12 -89 1z"/>
<path d="M920 310 c-11 -7 -3 -10 30 -10 33 0 41 3 30 10 -8 5 -22 10 -30 10
-8 0 -22 -5 -30 -10z"/>
</g>
</svg>
